<svg xmlns="http://www.w3.org/2000/svg" width="343.162" height="71.064" viewBox="0 0 343.162 71.064"><defs><style>.a{fill:#010066;}</style></defs><g transform="translate(-569.394 -495)"><path class="a" d="M1.974-6.2c4.982,4.982,11.938,7.332,19.27,7.332,8.272,0,14.946-6.2,14.946-12.69,0-6.956-5.358-10.81-11.092-12.5-4.7-1.6-9.118-2.162-8.648-5.17.564-4.324,5.922-4.794,13.818.846l5.452-8.554c-5.452-3.29-9.212-4.794-16.168-4.794-7.708,0-14.382,4.888-14.382,12.314,0,7.8,5.452,10.246,13.348,12.69,3.008.94,5.922,1.88,5.922,4.888,0,5.076-9.024,4.794-14.946-1.974Zm57.34-34.31v-15.04H47.376v15.04h-8.46v11h8.46V0H59.314V-29.516h9.4v-11Zm46.65,0-.94,3.854a21.435,21.435,0,0,0-13.912-5.076A21.383,21.383,0,0,0,69.586-20.3,21.443,21.443,0,0,0,91.112,1.128a21.435,21.435,0,0,0,13.912-5.076V0h9.964V-40.514ZM100.042-12.5a10.171,10.171,0,0,1-7.426,3.2,10.539,10.539,0,0,1-7.52-3.2,11.521,11.521,0,0,1-3.1-7.8,11.347,11.347,0,0,1,3.1-7.8,10.539,10.539,0,0,1,7.52-3.2,10.171,10.171,0,0,1,7.426,3.2,10.936,10.936,0,0,1,3.1,7.8A11.1,11.1,0,0,1,100.042-12.5Zm55.648-25a23.223,23.223,0,0,0-13.536-4.324c-12.408,0-22.466,9.588-22.466,21.432,0,11.938,10.058,21.526,22.466,21.526A23.875,23.875,0,0,0,155.5-3.008l-5.264-9.4c-7.05,6.956-19.27,1.222-19.27-7.8,0-10.152,13.16-14.382,19.27-7.708ZM205.228,0,185.206-23.594l16.45-16.92H185.582L173.55-27.448V-69.936H160.39V0h13.16V-13.63l2.726-2.82L189.812,0ZM232.77-12.314a10.007,10.007,0,0,1-6.956,3.008,9.668,9.668,0,0,1-7.238-3.29,11.912,11.912,0,0,1-2.35-3.948h30.268a17.861,17.861,0,0,0,.376-3.854,21.523,21.523,0,0,0-21.526-21.526A21.523,21.523,0,0,0,203.818-20.4,21.583,21.583,0,0,0,225.344,1.128a21.229,21.229,0,0,0,16.262-7.52ZM216.038-23.688a13.775,13.775,0,0,1,2.538-4.606,9.915,9.915,0,0,1,7.238-3.2,9.712,9.712,0,0,1,7.144,3.2,11.131,11.131,0,0,1,2.538,4.606Zm43.24-16.826H250.16V0h11.75V-22.372a10.657,10.657,0,0,1,15.04-7.614l4.606-10.434a21.01,21.01,0,0,0-6.862-1.128c-5.358,0-10.716,1.692-13.724,5.64Z" transform="translate(631 564.936)"/><path class="a" d="M2,0h8.25a2,2,0,0,1,2,2V12.328a2,2,0,0,1-2,2H2a2,2,0,0,1-2-2V2A2,2,0,0,1,2,0Z" transform="translate(597.513 529.399) rotate(-89.943)"/><path class="a" d="M2,0h8.25a2,2,0,0,1,2,2V22.495a2,2,0,0,1-2,2H2a2,2,0,0,1-2-2V2A2,2,0,0,1,2,0Z" transform="translate(569.43 529.369) rotate(-89.943)"/><path class="a" d="M2,0h8.25a2,2,0,0,1,2,2V12.328a2,2,0,0,1-2,2H2a2,2,0,0,1-2-2V2A2,2,0,0,1,2,0Z" transform="matrix(0.001, -1, 1, 0.001, 569.413, 547.297)"/><path class="a" d="M2,0h8.25a2,2,0,0,1,2,2V22.495a2,2,0,0,1-2,2H2a2,2,0,0,1-2-2V2A2,2,0,0,1,2,0Z" transform="translate(588.094 547.564) rotate(-89.943)"/><path class="a" d="M2,0h8.25a2,2,0,0,1,2,2V40.926a2,2,0,0,1-2,2H2a2,2,0,0,1-2-2V2A2,2,0,0,1,2,0Z" transform="matrix(0.001, -1, 1, 0.001, 569.394, 565.728)"/></g></svg>