<svg xmlns="http://www.w3.org/2000/svg" viewBox="0 0 151.879 41.347"><defs><style>.cls-1{fill:#d2d5d9;}.cls-2{fill:#242938;}</style></defs><title>stacker logo</title><g id="Layer_2" data-name="Layer 2"><g id="Layer_1-2" data-name="Layer 1"><g id="Page-1"><g id="memo_logo_left" data-name="memo logo left"><g id="icon"><path id="Rectangle" class="cls-1" d="M0,6.442,16.736,17.9V7.415h0a4,4,0,0,0-4.96-3.883Z" transform="translate(0 -3.415)"/><path id="Rectangle-2" data-name="Rectangle" class="cls-2" d="M0,6.442,17.658,17.687h0a7,7,0,0,1,3.24,5.9l0,17.171h0a4,4,0,0,1-6.149,3.374L0,34.744Z" transform="translate(0 -3.415)"/></g></g></g><path class="cls-2" d="M38.063,27.3c2.445,2.794,6.17,2.91,6.17.814,0-1.241-1.2-1.629-2.445-2.018-3.259-1.009-5.51-2.018-5.51-5.238,0-3.065,2.755-5.083,5.937-5.083a11.2,11.2,0,0,1,6.674,1.979l-2.25,3.531c-3.259-2.328-5.471-2.134-5.7-.349-.194,1.241,1.63,1.475,3.57,2.134,2.367.7,4.579,2.289,4.579,5.161,0,2.677-2.755,5.238-6.169,5.238a11.076,11.076,0,0,1-7.955-3.026Z" transform="translate(0 -3.415)"/><path class="cls-2" d="M62.9,16.279v4.54h-3.88V33H54.09V20.819H50.6v-4.54H54.09V10.071h4.928v6.208Z" transform="translate(0 -3.415)"/><path class="cls-2" d="M81.563,16.279V33H77.45v-1.63a8.847,8.847,0,1,1,0-13.5l.388-1.592Zm-4.889,8.343a4.518,4.518,0,0,0-1.28-3.221,4.2,4.2,0,0,0-3.065-1.319,4.352,4.352,0,0,0-3.1,1.319,4.689,4.689,0,0,0-1.28,3.221,4.757,4.757,0,0,0,1.28,3.221,4.352,4.352,0,0,0,3.1,1.319,4.2,4.2,0,0,0,3.065-1.319A4.58,4.58,0,0,0,76.674,24.622Z" transform="translate(0 -3.415)"/><path class="cls-2" d="M96.5,21.479c-2.522-2.755-7.955-1.009-7.955,3.182,0,3.726,5.044,6.092,7.955,3.221l2.173,3.88a9.853,9.853,0,0,1-5.51,1.708,9.073,9.073,0,0,1-9.274-8.886,9.066,9.066,0,0,1,9.274-8.848,9.588,9.588,0,0,1,5.587,1.785Z" transform="translate(0 -3.415)"/><path class="cls-2" d="M113.228,33l-5.587-6.791-1.125,1.165V33h-5.432V4.134h5.432v17.54l4.967-5.395h6.636l-6.791,6.985L119.592,33Z" transform="translate(0 -3.415)"/><path class="cls-2" d="M135,30.365a8.764,8.764,0,0,1-6.713,3.1,8.886,8.886,0,1,1,8.886-8.886,7.36,7.36,0,0,1-.155,1.591H124.521a4.93,4.93,0,0,0,.97,1.63,3.993,3.993,0,0,0,2.988,1.357,4.134,4.134,0,0,0,2.872-1.241Zm-2.522-7.14a4.592,4.592,0,0,0-1.047-1.9A4.011,4.011,0,0,0,128.479,20a4.093,4.093,0,0,0-2.988,1.319,5.684,5.684,0,0,0-1.048,1.9Z" transform="translate(0 -3.415)"/><path class="cls-2" d="M143.381,18.18a7.011,7.011,0,0,1,5.665-2.328,8.674,8.674,0,0,1,2.833.466l-1.9,4.308a4.4,4.4,0,0,0-6.209,3.143V33h-4.85V16.279h3.764Z" transform="translate(0 -3.415)"/></g></g></svg>