<svg xmlns="http://www.w3.org/2000/svg" viewBox="0 0 118.582 27.367"><defs><style>.cls-1{fill:#f1edfe;}.cls-2{fill:#a392f4;}.cls-3{fill:#7753f6;}.cls-4{fill:#141414;}</style></defs><title>stacker-purple_1</title><g id="Layer_2" data-name="Layer 2"><g id="Layer_1-2" data-name="Layer 1"><rect class="cls-1" y="1.367" width="26" height="26" rx="2.25" ry="2.25"/><g id="Page-1"><g id="memo_logo_left" data-name="memo logo left"><g id="icon"><path id="Rectangle" class="cls-2" d="M8.11,9.7l7.119,4.874v-4.46h0a1.7,1.7,0,0,0-2.11-1.652Z" transform="translate(0 -2.975)"/><path id="Rectangle-2" data-name="Rectangle" class="cls-3" d="M8.11,9.7l7.511,4.783h0A2.977,2.977,0,0,1,17,16.995v7.3h0a1.7,1.7,0,0,1-2.615,1.435L8.111,21.739Z" transform="translate(0 -2.975)"/></g></g></g><path class="cls-4" d="M36.64,19.653c1.76,2.012,4.442,2.1,4.442.587,0-.894-.866-1.173-1.76-1.452-2.347-.727-3.967-1.453-3.967-3.772,0-2.207,1.984-3.66,4.274-3.66a8.058,8.058,0,0,1,4.806,1.426l-1.621,2.542c-2.347-1.677-3.939-1.537-4.107-.252-.14.895,1.173,1.063,2.57,1.537,1.7.5,3.3,1.648,3.3,3.716,0,1.928-1.983,3.771-4.442,3.771A7.972,7.972,0,0,1,34.4,21.917Z" transform="translate(0 -2.975)"/><path class="cls-4" d="M54.52,11.719v3.27H51.726v8.772H48.178V14.988H45.663v-3.27h2.515V7.249h3.548v4.47Z" transform="translate(0 -2.975)"/><path class="cls-4" d="M67.958,11.719V23.761H65V22.587a6.37,6.37,0,1,1,0-9.723l.279-1.146Zm-3.52,6.007a3.248,3.248,0,0,0-.922-2.318,3.02,3.02,0,0,0-2.207-.95,3.13,3.13,0,0,0-2.235.95,3.37,3.37,0,0,0-.922,2.318,3.425,3.425,0,0,0,.922,2.319,3.134,3.134,0,0,0,2.235.95,3.024,3.024,0,0,0,2.207-.95A3.3,3.3,0,0,0,64.438,17.726Z" transform="translate(0 -2.975)"/><path class="cls-4" d="M78.714,15.463a3.382,3.382,0,0,0-5.728,2.291,3.426,3.426,0,0,0,5.728,2.319l1.564,2.793A7.092,7.092,0,0,1,76.311,24.1a6.532,6.532,0,0,1-6.677-6.4,6.527,6.527,0,0,1,6.677-6.37,6.9,6.9,0,0,1,4.023,1.285Z" transform="translate(0 -2.975)"/><path class="cls-4" d="M90.755,23.761l-4.023-4.89-.811.839v4.051H82.01V2.975h3.911V15.6L89.5,11.719h4.778l-4.89,5.029,5.951,7.013Z" transform="translate(0 -2.975)"/><path class="cls-4" d="M106.429,21.861A6.312,6.312,0,0,1,101.6,24.1a6.4,6.4,0,1,1,6.4-6.4,5.3,5.3,0,0,1-.112,1.146h-9a3.542,3.542,0,0,0,.7,1.173,2.875,2.875,0,0,0,2.151.979A2.975,2.975,0,0,0,103.8,20.1Zm-1.816-5.142a3.3,3.3,0,0,0-.754-1.368,2.884,2.884,0,0,0-2.123-.95,2.946,2.946,0,0,0-2.151.95,4.079,4.079,0,0,0-.754,1.368Z" transform="translate(0 -2.975)"/><path class="cls-4" d="M112.463,13.088a5.049,5.049,0,0,1,4.079-1.676,6.242,6.242,0,0,1,2.04.335l-1.369,3.1a3.167,3.167,0,0,0-4.47,2.263v6.649H109.25V11.719h2.71Z" transform="translate(0 -2.975)"/></g></g></svg>